<?xml version="1.0" standalone="no"?>
<!DOCTYPE svg PUBLIC "-//W3C//DTD SVG 20010904//EN"
 "http://www.w3.org/TR/2001/REC-SVG-20010904/DTD/svg10.dtd">
<svg version="1.0" xmlns="http://www.w3.org/2000/svg"
 width="1000.000000pt" height="458.000000pt" viewBox="0 0 1000.000000 458.000000"
 preserveAspectRatio="xMidYMid meet">

<g transform="translate(0.000000,458.000000) scale(0.100000,-0.100000)"
fill="#000000" stroke="none">
<path d="M3807 4569 c-103 -24 -197 -103 -244 -204 -39 -84 -39 -195 -1 -276
35 -76 85 -129 160 -170 59 -32 69 -34 158 -34 114 0 163 18 240 91 124 116
144 303 49 448 -76 114 -230 176 -362 145z"/>
<path d="M4835 4560 c-158 -53 -254 -196 -243 -359 3 -37 14 -87 26 -113 29
-66 104 -143 171 -175 55 -28 59 -28 280 -31 l223 -3 -4 213 c-3 208 -4 214
-31 274 -75 163 -261 248 -422 194z"/>
<path d="M5959 4557 c-158 -54 -246 -184 -237 -351 7 -130 80 -239 198 -295
47 -22 69 -26 145 -26 76 0 99 4 146 26 70 33 130 91 165 161 39 75 45 199 15
279 -39 104 -131 185 -243 215 -73 19 -112 17 -189 -9z"/>
<path d="M3810 3536 c-71 -16 -112 -38 -170 -92 -70 -65 -104 -147 -105 -249
0 -71 4 -88 33 -147 105 -214 372 -266 547 -107 32 30 65 73 82 107 28 56 28
59 31 280 l3 222 -183 -1 c-104 0 -207 -6 -238 -13z"/>
<path d="M4879 3540 c-106 -18 -211 -98 -258 -199 -22 -47 -26 -70 -26 -146 0
-78 4 -97 28 -146 36 -75 117 -150 190 -177 45 -17 80 -22 156 -22 110 0 191
-20 296 -72 248 -125 431 -374 454 -618 10 -110 41 -179 111 -244 76 -71 127
-91 235 -91 78 0 97 4 147 28 122 60 188 159 196 293 7 125 -30 218 -118 298
-63 57 -118 77 -234 86 -137 11 -184 24 -301 80 -161 77 -299 209 -380 362
-48 91 -62 134 -80 245 -18 109 -41 161 -99 221 -52 55 -117 88 -197 102 -35
5 -66 9 -69 9 -3 -1 -26 -5 -51 -9z"/>
<path d="M5722 3324 c3 -228 3 -229 31 -282 35 -67 92 -124 159 -159 48 -25
63 -28 153 -28 95 0 103 2 163 34 117 64 174 155 180 291 5 116 -20 183 -97
261 -91 90 -131 102 -384 107 l-208 4 3 -228z"/>
<path d="M3790 2505 c-204 -57 -314 -290 -226 -480 36 -76 88 -130 164 -167
60 -30 75 -33 157 -33 79 0 97 3 145 28 75 39 133 98 167 171 24 52 28 74 28
146 0 99 -26 168 -90 239 -79 87 -227 128 -345 96z"/>
<path d="M4862 2509 c-101 -20 -192 -95 -241 -198 -22 -47 -26 -70 -26 -146 0
-79 3 -97 28 -145 37 -72 96 -131 165 -166 57 -29 57 -29 281 -32 l223 -3 -4
213 -3 213 -31 65 c-50 104 -125 168 -229 195 -64 16 -97 17 -163 4z"/>
<path d="M9578 1133 l-48 -4 0 -120 0 -119 -85 0 -85 0 0 -75 0 -75 84 0 84 0
4 -263 3 -263 30 -59 c17 -32 46 -71 65 -86 68 -55 195 -70 310 -39 62 17 62
19 36 96 -19 56 -27 68 -42 66 -11 -2 -49 -6 -86 -9 -64 -5 -69 -4 -97 24 -39
39 -43 72 -39 323 l3 205 128 3 127 3 0 74 0 74 -127 3 -128 3 -3 123 -3 122
-42 -2 c-23 -1 -63 -3 -89 -5z"/>
<path d="M320 896 c-74 -21 -144 -62 -193 -112 -162 -164 -167 -475 -10 -644
84 -91 201 -140 333 -140 100 0 229 59 275 128 l24 34 7 -71 7 -71 83 0 84 0
0 435 0 435 -84 0 c-95 0 -96 -1 -96 -80 l0 -49 -45 48 c-65 70 -126 94 -245
97 -57 2 -113 -2 -140 -10z m241 -162 c76 -22 151 -100 175 -180 42 -145 -19
-301 -142 -359 -56 -26 -160 -31 -222 -11 -117 39 -185 141 -185 278 -1 66 4
85 29 134 34 68 84 110 156 135 66 23 119 24 189 3z"/>
<path d="M2240 896 c-122 -35 -222 -115 -272 -218 -35 -72 -47 -126 -48 -215
-1 -233 122 -398 331 -448 164 -38 357 1 474 98 l37 30 -57 57 -57 58 -42 -28
c-118 -80 -321 -80 -418 0 -38 32 -78 102 -78 138 l0 22 350 0 350 0 0 89 c0
199 -87 340 -248 402 -71 27 -252 36 -322 15z m248 -160 c80 -28 131 -86 145
-163 l7 -33 -265 0 c-176 0 -265 3 -265 10 0 6 7 27 16 48 26 64 92 121 164
143 43 13 155 10 198 -5z"/>
<path d="M3320 901 c-49 -16 -87 -40 -118 -75 -17 -20 -34 -36 -36 -36 -3 0
-6 21 -8 48 l-3 47 -82 3 -83 3 0 -436 0 -436 88 3 87 3 5 280 c5 305 6 310
67 367 42 40 94 58 168 58 46 0 78 -6 105 -20 22 -11 41 -20 44 -20 3 0 22 34
44 75 43 82 44 79 -28 116 -35 18 -65 23 -135 26 -49 1 -101 -1 -115 -6z"/>
<path d="M3970 896 c-125 -36 -222 -115 -271 -219 -88 -189 -55 -417 79 -552
90 -89 214 -131 362 -122 102 6 171 30 247 88 l55 41 -60 61 -61 61 -38 -27
c-59 -40 -92 -50 -173 -50 -119 0 -200 45 -246 138 -71 145 -23 318 107 390
48 27 63 30 139 30 77 0 91 -3 144 -32 l59 -33 53 58 52 57 -21 23 c-12 13
-55 40 -96 60 -70 35 -81 37 -180 39 -64 1 -124 -3 -151 -11z"/>
<path d="M4853 895 c-77 -21 -130 -51 -188 -106 -62 -59 -99 -124 -120 -210
-52 -223 36 -434 218 -524 211 -103 466 -43 586 136 123 184 100 441 -54 594
-106 106 -288 151 -442 110z m248 -183 c210 -110 183 -460 -42 -526 -66 -20
-102 -20 -165 -1 -184 55 -247 317 -112 470 56 63 104 85 194 85 59 0 81 -5
125 -28z"/>
<path d="M5963 901 c-52 -14 -116 -50 -160 -93 l-41 -41 -7 49 c-3 27 -7 56
-8 64 -2 12 -19 15 -82 15 l-80 0 0 -435 0 -435 87 -3 87 -3 3 263 c3 252 4
265 27 316 25 56 75 106 127 128 50 21 157 18 203 -6 41 -20 86 -67 104 -109
8 -17 14 -128 17 -306 l5 -280 90 0 90 0 3 230 c3 269 -7 365 -47 451 -59 127
-162 194 -304 200 -45 2 -96 0 -114 -5z"/>
<path d="M6933 895 c-48 -14 -130 -64 -158 -95 -28 -31 -34 -25 -37 38 l-3 57
-80 0 -80 0 -3 -437 -2 -438 90 0 90 0 0 248 c0 284 7 327 67 393 58 64 102
82 194 77 67 -3 83 -7 120 -33 26 -18 53 -50 68 -80 26 -49 26 -52 29 -327 l3
-278 89 0 90 0 0 278 c0 153 -5 297 -11 322 -22 96 -83 186 -160 235 -80 51
-215 69 -306 40z"/>
<path d="M7820 894 c-166 -45 -285 -184 -311 -365 -21 -143 22 -297 110 -392
102 -110 298 -162 473 -126 72 15 187 71 223 109 l29 31 -59 53 c-59 53 -60
54 -80 36 -67 -62 -241 -89 -345 -55 -84 28 -148 95 -165 173 l-7 32 356 0
356 0 0 73 c0 83 -21 180 -51 239 -48 94 -151 172 -260 197 -63 15 -205 12
-269 -5z m285 -171 c22 -12 50 -32 62 -45 26 -27 53 -88 53 -118 0 -20 -5 -20
-261 -20 l-261 0 6 31 c14 70 74 134 152 164 57 22 197 15 249 -12z"/>
<path d="M8855 896 c-176 -44 -289 -174 -317 -363 -23 -155 18 -298 113 -398
92 -98 214 -142 369 -132 102 6 171 30 247 88 l55 41 -59 60 -60 59 -49 -30
c-86 -54 -217 -61 -301 -17 -185 96 -188 397 -6 499 93 51 220 47 307 -10 l39
-26 53 59 c58 66 58 66 -14 116 -92 63 -249 86 -377 54z"/>
<path d="M1100 810 l0 -80 210 -2 209 -3 -224 -315 c-197 -276 -225 -320 -225
-352 l0 -38 360 0 360 0 0 90 0 90 -220 2 -220 3 220 305 c193 268 220 310
220 343 l0 37 -345 0 -345 0 0 -80z"/>
</g>
</svg>
